<?xml version="1.0" encoding="utf-8"?>
<!-- Generator: Adobe Illustrator 24.3.0, SVG Export Plug-In . SVG Version: 6.00 Build 0)  -->
<svg version="1.1" id="Слой_1" xmlns="http://www.w3.org/2000/svg" xmlns:xlink="http://www.w3.org/1999/xlink" x="0px" y="0px"
	 viewBox="0 0 520 520" style="enable-background:new 0 0 520 520;" xml:space="preserve">
<g>
	<path d="M474.6,281.94c-0.78,3.47-1.49,6.95-2.35,10.39c-7.91,31.58-34.08,54.65-66.53,58.02c-9.09,0.94-18.35,0.25-27.52,0.56
		c-1.56,0.05-3.67,1.02-4.51,2.26c-9.36,13.89-20.39,26.24-33.25,36.95c-0.49,0.41-1.2,0.55-1.8,0.82c0.22,0.4,0.44,0.79,0.65,1.19
		c1.4,0,2.8,0,4.2,0c21.95,0,43.91,0,65.86,0c8.48,0,11.32,2.99,10.85,11.4c-1.45,26.07-23.36,47.87-49.45,49.17
		c-1.59,0.08-3.19,0.1-4.79,0.1c-81.96,0-163.93,0.02-245.89-0.01c-26.38-0.01-47.14-16.28-52.98-41.47
		c-0.72-3.09-1.07-6.3-1.2-9.47c-0.26-6.43,2.88-9.68,9.34-9.71c15.97-0.06,31.93-0.02,47.9-0.02c1.45,0,2.89,0,5.37,0
		c-1.69-1.6-2.73-2.66-3.85-3.62c-28.89-24.89-47.56-55.96-55.2-93.29c-2.33-11.39-3.22-23.2-3.5-34.84
		c-0.54-21.94-0.16-43.91-0.15-65.86c0-7.68,2.87-10.55,10.64-10.56c18.76-0.03,37.52-0.02,56.28,0.01c1.58,0,3.2,0.17,4.73,0.56
		c3.44,0.88,5.86,4.26,5.73,7.72c-0.14,3.66-2.92,6.88-6.59,7.44c-1.57,0.24-3.18,0.23-4.78,0.23c-15.04,0.02-30.07,0.01-45.11,0.01
		c-1.45,0-2.89,0-4.7,0c-0.09,1.53-0.23,2.8-0.23,4.07c-0.01,18.89-0.36,37.8,0.06,56.68c1.22,55.89,25.34,99.2,72.28,129.65
		c1.66,1.07,3.91,1.73,5.89,1.73c48.97,0.09,97.93,0.09,146.9,0c1.98,0,4.23-0.65,5.89-1.71c40.97-26.07,64.72-63.29,71.18-111.34
		c1.3-9.7,1.05-19.64,1.15-29.47c0.17-16.35,0.05-32.7,0.05-49.61c-1.94,0-3.62,0-5.3,0c-51.63,0-103.25,0-154.88-0.01
		c-1.73,0-3.47,0.03-5.18-0.17c-3.96-0.47-6.86-3.6-7.03-7.45c-0.16-3.61,2.36-6.99,6.07-7.82c1.67-0.37,3.42-0.5,5.13-0.5
		c55.22-0.02,110.44-0.02,165.66-0.02c9.02,0,11.5,2.54,11.5,11.71c0,4.23,0,8.47,0,13.23c1.89,0,3.43,0,4.98,0
		c19.29,0,38.59,0.06,57.88-0.04c4.84-0.03,8.54,1.43,10.6,6.04C474.6,237.22,474.6,259.58,474.6,281.94z M83,408.2
		c3.53,17.03,18.43,28.6,36.8,28.61c82.19,0.05,164.38,0.11,246.58-0.16c6.03-0.02,12.49-1.65,17.98-4.2
		c10.06-4.68,16.27-13.06,18.9-24.25C296.27,408.2,189.76,408.2,83,408.2z M401.28,240.81c1.79,0,3.23,0,4.68,0
		c9.04,0,18.08-0.08,27.12,0.03c6.61,0.09,9.52,3.06,9.57,9.54c0.06,8.11,0.19,16.22-0.04,24.33c-0.42,14.57-6.49,26.38-18.09,35.23
		c-8.82,6.74-18.94,9.27-29.93,8.99c-1.37-0.03-3.57,0.44-4.02,1.35c-2.27,4.6-4.08,9.41-6.06,14.16c7.05,0,13.91,0.76,20.55-0.13
		c31.56-4.24,53.39-29.46,53.55-61.38c0.07-14.76,0.02-29.51,0-44.27c0-1.16-0.12-2.32-0.19-3.5c-19.19,0-38.11,0-57.15,0
		C401.28,230.38,401.28,235.26,401.28,240.81z M396.94,302.83c11.05,0.03,19.72-4.63,25.62-14.22c6.07-9.86,3.69-20.8,4.11-31.52
		c-8.69,0-16.96,0-24.52,0C400.4,272.46,398.69,287.44,396.94,302.83z"/>
	<path d="M232.67,44c6.66,4.12,7.47,7.7,3.27,14.41c-5.28,8.42-4.75,17.26,1.8,25.5c5.09,6.39,9.67,13.01,11.52,21.13
		c3.16,13.86,0.05,26.3-8.51,37.5c-1.45,1.9-2.89,3.84-4.58,5.52c-2.79,2.78-7.24,3.01-10.21,0.75c-3.12-2.38-4.1-6.37-2.17-9.97
		c0.99-1.85,2.36-3.52,3.67-5.19c9.58-12.27,9.68-25.07-0.19-37.09c-7.39-9-12.04-18.84-10.48-30.71
		c1.15-8.71,3.87-16.78,11.91-21.85C230.01,44,231.34,44,232.67,44z"/>
	<path d="M294.75,133.19c0.03,13.02-5.77,23.54-14.29,32.8c-2.68,2.91-7.17,3.07-10.2,0.82c-3.29-2.43-4.31-6.67-2.11-10.29
		c1.72-2.83,3.97-5.32,5.83-8.07c6.48-9.62,6.46-21.02,0.01-30.7c-3.31-4.96-7.36-9.57-9.85-14.9c-6.02-12.9-4.21-25.36,3.95-36.92
		c2.82-4,7.49-4.96,11.19-2.55c3.68,2.4,4.85,7.13,1.97,11.19c-6.61,9.31-6.13,19.66,2.38,29.47
		C290.81,112.35,294.68,122.1,294.75,133.19z"/>
	<path d="M186.29,61.47c6.33,0.92,9.68,6.77,7.01,12.19c-1.52,3.08-3.48,6.04-4.43,9.29c-2.11,7.23,0.17,13.63,4.86,19.27
		c6.32,7.59,11.04,15.87,12.19,25.93c1.73,15.07-4.2,27.25-14.08,37.93c-2.64,2.85-7.25,2.94-10.21,0.67
		c-3.13-2.4-4.1-6.42-2.13-9.98c1.09-1.96,2.57-3.71,3.94-5.49c9.23-11.96,9.29-24.7-0.2-36.49c-5.88-7.3-10.46-15.06-10.98-24.67
		c-0.5-9.28,2.12-17.66,7.9-24.86C181.57,63.48,184.21,62.7,186.29,61.47z"/>
	<path d="M362.62,267.39c-2.11,32.12-13.98,59.85-35.9,83.26c-4.2,4.49-8.86,5.22-12.54,1.84c-3.5-3.22-3.46-8.03,0.59-12.36
		c11.81-12.59,20.66-26.92,26.14-43.32c3.56-10.66,5.45-21.61,5.86-32.83c0.05-1.46,0.08-2.94,0.39-4.36
		c0.83-3.77,4.03-6.36,7.65-6.37c3.76-0.01,7.2,2.77,7.74,6.73C362.9,262.46,362.62,265.02,362.62,267.39z"/>
	<path d="M293.31,358.75c4.17-0.1,7.89,3.46,8.04,7.68c0.15,4.4-3.44,8.13-7.89,8.21c-4.37,0.08-7.87-3.22-8.05-7.59
		C285.24,362.8,288.98,358.85,293.31,358.75z"/>
	<path d="M180.31,184.08c4.27,0.1,7.79,3.79,7.7,8.07c-0.1,4.33-3.69,7.74-8.05,7.65c-4.29-0.09-7.87-3.79-7.74-8
		C172.35,187.55,176.09,183.98,180.31,184.08z"/>
</g>
</svg>
