<svg width="58" height="42" viewBox="0 0 58 42" fill="none" xmlns="http://www.w3.org/2000/svg">
<path d="M8.97049 6.2084C10.7927 6.2084 12.2754 4.9522 12.2754 3.4084C12.2754 1.8646 10.7927 0.6084 8.97049 0.6084C7.1483 0.6084 5.66557 1.8646 5.66557 3.4084C5.66557 4.9522 7.1483 6.2084 8.97049 6.2084ZM8.97049 2.2084C9.75163 2.2084 10.3869 2.7466 10.3869 3.4084C10.3869 4.0702 9.75163 4.6084 8.97049 4.6084C8.18935 4.6084 7.5541 4.0702 7.5541 3.4084C7.5541 2.7466 8.18935 2.2084 8.97049 2.2084Z" fill="#235560"/>
<path d="M38.3286 1.7106C38.8861 1.7106 39.3382 1.3276 39.3382 0.8554C39.3382 0.3832 38.8861 0 38.3286 0C37.771 0 37.3191 0.383 37.3191 0.8554C37.3191 1.3278 37.771 1.7106 38.3286 1.7106Z" fill="#235560"/>
<path d="M19.1872 11.224C19.4688 11.4018 19.7599 11.5854 19.8132 11.7518C19.894 12.003 19.6506 12.406 19.1452 12.8584C18.7863 13.1794 18.8031 13.6858 19.1815 13.9892C19.364 14.1356 19.5975 14.2084 19.8307 14.2084C20.0812 14.2084 20.3309 14.1244 20.5162 13.9584C21.5282 13.053 21.9045 12.169 21.6352 11.3314C21.4107 10.6322 20.7775 10.2326 20.3151 9.9408C20.155 9.8396 19.9126 9.6868 19.8812 9.6752C19.8812 9.2108 20.3427 8.7646 21.0301 8.5654C21.5235 8.422 21.7863 7.9674 21.6175 7.5494C21.4477 7.1306 20.9088 6.9088 20.4183 7.0514C18.9447 7.4792 17.9927 8.5088 17.9927 9.6752C17.9932 10.4702 18.6834 10.9056 19.1872 11.224Z" fill="#235560"/>
<path d="M22.9642 6.424C23.2459 6.6018 23.5369 6.7854 23.5903 6.9518C23.671 7.203 23.4276 7.606 22.9222 8.0584C22.5634 8.3794 22.5801 8.8858 22.9586 9.1892C23.141 9.3356 23.3745 9.4084 23.6077 9.4084C23.8582 9.4084 24.108 9.3244 24.2933 9.1584C25.3053 8.253 25.6816 7.369 25.4122 6.5314C25.1877 5.8322 24.5546 5.4326 24.0921 5.1408C23.9321 5.0396 23.6897 4.8868 23.6583 4.8752C23.6583 4.4108 24.1198 3.9646 24.8072 3.7654C25.3006 3.622 25.5633 3.1674 25.3945 2.7494C25.2248 2.3306 24.6863 2.1092 24.1953 2.2514C22.7218 2.6792 21.7697 3.7088 21.7697 4.8752C21.7702 5.6702 22.4605 6.1056 22.9642 6.424Z" fill="#235560"/>
<path d="M11.3311 19.0084C10.8097 19.0084 10.3869 19.3666 10.3869 19.8084V24.6084C10.3869 25.0502 10.8097 25.4084 11.3311 25.4084C11.8526 25.4084 12.2754 25.0502 12.2754 24.6084V19.8084C12.2754 19.3666 11.8526 19.0084 11.3311 19.0084Z" fill="#235560"/>
<path d="M42.0235 8.3452C42.2078 8.5014 42.4495 8.5796 42.691 8.5796C42.9325 8.5796 43.1743 8.5014 43.3586 8.3452L44.1074 7.7108L44.8562 8.3452C45.0406 8.5014 45.2823 8.5796 45.5238 8.5796C45.7653 8.5796 46.0071 8.5014 46.1914 8.3452C46.5602 8.0328 46.5602 7.5264 46.1914 7.214L45.4426 6.5796L46.1914 5.9452C46.5602 5.6328 46.5602 5.1264 46.1914 4.814C45.8227 4.5016 45.225 4.5016 44.8562 4.814L44.1074 5.4484L43.3586 4.814C42.9899 4.5016 42.3922 4.5016 42.0235 4.814C41.6547 5.1264 41.6547 5.6328 42.0235 5.9452L42.7723 6.5796L42.0235 7.214C41.6545 7.5264 41.6545 8.0326 42.0235 8.3452Z" fill="#235560"/>
<path d="M56.6557 39.8084H53.1957C53.5874 39.2826 53.823 38.6648 53.823 37.9982V34.4186C53.823 32.5382 52.0175 31.0084 49.7978 31.0084C52.0173 31.0084 53.823 29.4788 53.823 27.5982V24.0186C53.823 22.1382 52.0175 20.6084 49.7978 20.6084H48.5337C47.1753 19.574 45.4381 19.0084 43.598 19.0084H39.4973C37.6572 19.0084 35.92 19.574 34.5617 20.6084H33.9934V16.6084C33.9934 16.1666 33.5706 15.8084 33.0492 15.8084H8.49836C7.97689 15.8084 7.5541 16.1666 7.5541 16.6084V18.2084H7.03688C3.1569 18.2084 0 20.9174 0 24.247C0 27.5342 3.1569 30.2084 7.03688 30.2084H7.5541C7.5541 34.285 10.1466 37.8492 13.9996 39.8084H1.88852C1.36706 39.8084 0.944262 40.1666 0.944262 40.6084C0.944262 41.0502 1.36706 41.4084 1.88852 41.4084H56.6557C57.1772 41.4084 57.6 41.0502 57.6 40.6084C57.6 40.1666 57.1772 39.8084 56.6557 39.8084ZM31.1607 35.8084H51.9344V36.6084H31.1607V35.8084ZM51.9094 34.2084H31.1859C31.3106 33.3102 32.2043 32.6084 33.2973 32.6084H34.9377C35.1882 32.6084 35.4283 32.524 35.6053 32.374C36.6449 31.4936 38.0269 31.0084 39.4971 31.0084H43.5978C45.0682 31.0084 46.4499 31.4936 47.4896 32.374C47.6666 32.524 47.9069 32.6084 48.1571 32.6084H49.7976C50.891 32.6084 51.7845 33.3102 51.9094 34.2084ZM49.7978 29.4084H33.2971C32.2041 29.4084 31.3103 28.7066 31.1857 27.8084H51.9092C51.7845 28.7066 50.891 29.4084 49.7978 29.4084ZM31.1607 25.4084H51.9344V26.2084H31.1607V25.4084ZM34.9377 22.2084C35.1882 22.2084 35.4283 22.124 35.6053 21.974C36.6449 21.0936 38.0269 20.6084 39.4971 20.6084H43.5978C45.0682 20.6084 46.4499 21.0936 47.4896 21.974C47.6666 22.124 47.9069 22.2084 48.1571 22.2084H49.7976C50.8905 22.2084 51.7843 22.9102 51.9089 23.8084H31.1854C31.3101 22.9102 32.2038 22.2084 33.2968 22.2084H34.9377ZM7.5541 26.2084H7.03688C5.73852 26.2084 4.72131 25.313 4.72131 24.1698C4.72131 23.0882 5.76 22.2084 7.03688 22.2084H7.5541V26.2084ZM7.03688 28.6084C4.19819 28.6084 1.88852 26.6518 1.88852 24.247C1.88852 21.7994 4.19795 19.8084 7.03688 19.8084H7.5541V20.6084H7.03688C4.71871 20.6084 2.83279 22.206 2.83279 24.1698C2.83279 26.21 4.67929 27.8084 7.03688 27.8084H7.5541V28.6084H7.03688ZM9.44262 30.2084V17.4084H32.1049V20.7786C30.4697 21.2122 29.2721 22.4922 29.2721 24.0186V27.5982C29.2721 29.4786 31.0776 31.0084 33.2973 31.0084C31.0778 31.0084 29.2721 32.538 29.2721 34.4186V36.5476C27.1176 38.6184 24.0348 39.8084 20.7738 39.8084C14.5258 39.8084 9.44262 35.5018 9.44262 30.2084ZM29.3607 38.703C29.4603 39.103 29.6496 39.4734 29.8991 39.8084H27.5831C28.2115 39.4882 28.7991 39.1106 29.3607 38.703ZM33.2973 39.8084C32.2043 39.8084 31.3106 39.1066 31.1859 38.2084H51.9094C51.7848 39.1066 50.891 39.8084 49.798 39.8084H33.2973Z" fill="#235560"/>
</svg>
