<svg width="164" height="83" viewBox="0 0 164 83" fill="none" xmlns="http://www.w3.org/2000/svg">
<path d="M3.30414 62.0827C3.30414 61.0427 3.48014 60.0267 3.83214 59.0347C4.20014 58.0267 4.72814 57.1147 5.41614 56.2987C6.10414 55.4667 6.95214 54.8107 7.96014 54.3307C8.96814 53.8347 10.1121 53.5867 11.3921 53.5867C12.9121 53.5867 14.2081 53.9387 15.2801 54.6427C16.3681 55.3307 17.1681 56.2187 17.6801 57.3067L16.3601 58.1227C15.9921 57.3707 15.5281 56.7787 14.9681 56.3467C14.4081 55.8987 13.8081 55.5787 13.1681 55.3867C12.5441 55.1947 11.9201 55.0987 11.2961 55.0987C10.2721 55.0987 9.36814 55.3067 8.58414 55.7227C7.80014 56.1227 7.13614 56.6667 6.59214 57.3547C6.06414 58.0267 5.66414 58.7867 5.39214 59.6347C5.12014 60.4667 4.98414 61.3147 4.98414 62.1787C4.98414 63.1227 5.14414 64.0267 5.46414 64.8907C5.78414 65.7547 6.23214 66.5227 6.80814 67.1947C7.38414 67.8507 8.05614 68.3787 8.82414 68.7787C9.60814 69.1627 10.4561 69.3547 11.3681 69.3547C12.0081 69.3547 12.6641 69.2427 13.3361 69.0187C14.0081 68.7947 14.6321 68.4507 15.2081 67.9867C15.8001 67.5227 16.2721 66.9227 16.6241 66.1867L18.0161 66.9067C17.6641 67.7547 17.1201 68.4747 16.3841 69.0667C15.6481 69.6587 14.8241 70.1067 13.9121 70.4107C13.0161 70.7147 12.1361 70.8667 11.2721 70.8667C10.1041 70.8667 9.03214 70.6187 8.05614 70.1227C7.08014 69.6107 6.23214 68.9387 5.51214 68.1067C4.80814 67.2587 4.26414 66.3147 3.88014 65.2747C3.49614 64.2187 3.30414 63.1547 3.30414 62.0827ZM20.5253 70.7227V58.2187H30.5813V70.7227H28.9493V59.6827H22.1573V70.7227H20.5253ZM33.1819 67.1227C33.1819 66.3387 33.4059 65.6667 33.8539 65.1067C34.3019 64.5307 34.9179 64.0907 35.7019 63.7867C36.5019 63.4667 37.4219 63.3067 38.4619 63.3067C39.0699 63.3067 39.7019 63.3547 40.3579 63.4507C41.0139 63.5467 41.5979 63.6907 42.1099 63.8827V62.8267C42.1099 61.7707 41.7979 60.9307 41.1739 60.3067C40.5499 59.6827 39.6859 59.3707 38.5819 59.3707C37.9099 59.3707 37.2459 59.4987 36.5899 59.7547C35.9499 59.9947 35.2779 60.3547 34.5739 60.8347L33.9499 59.6827C34.7659 59.1227 35.5659 58.7067 36.3499 58.4347C37.1339 58.1467 37.9339 58.0027 38.7499 58.0027C40.2859 58.0027 41.5019 58.4427 42.3979 59.3227C43.2939 60.2027 43.7419 61.4187 43.7419 62.9707V68.7547C43.7419 68.9787 43.7899 69.1467 43.8859 69.2587C43.9819 69.3547 44.1339 69.4107 44.3419 69.4267V70.7227C44.1659 70.7387 44.0139 70.7547 43.8859 70.7707C43.7579 70.7867 43.6619 70.7867 43.5979 70.7707C43.1979 70.7547 42.8939 70.6267 42.6859 70.3867C42.4779 70.1467 42.3659 69.8907 42.3499 69.6187L42.3259 68.7067C41.7659 69.4267 41.0379 69.9867 40.1419 70.3867C39.2459 70.7707 38.3339 70.9627 37.4059 70.9627C36.6059 70.9627 35.8779 70.7947 35.2219 70.4587C34.5819 70.1067 34.0779 69.6427 33.7099 69.0667C33.3579 68.4747 33.1819 67.8267 33.1819 67.1227ZM41.5579 68.0827C41.7339 67.8587 41.8699 67.6427 41.9659 67.4347C42.0619 67.2267 42.1099 67.0427 42.1099 66.8827V65.0587C41.5659 64.8507 40.9979 64.6907 40.4059 64.5787C39.8299 64.4667 39.2459 64.4107 38.6539 64.4107C37.4859 64.4107 36.5419 64.6427 35.8219 65.1067C35.1019 65.5707 34.7419 66.2027 34.7419 67.0027C34.7419 67.4667 34.8619 67.9067 35.1019 68.3227C35.3419 68.7227 35.6939 69.0587 36.1579 69.3307C36.6219 69.5867 37.1659 69.7147 37.7899 69.7147C38.5739 69.7147 39.3019 69.5627 39.9739 69.2587C40.6619 68.9547 41.1899 68.5627 41.5579 68.0827ZM52.692 70.9627C51.78 70.9627 50.94 70.7947 50.172 70.4587C49.42 70.1067 48.756 69.6267 48.18 69.0187C47.62 68.4107 47.18 67.7147 46.86 66.9307C46.556 66.1467 46.404 65.3147 46.404 64.4347C46.404 63.2507 46.668 62.1707 47.196 61.1947C47.724 60.2187 48.46 59.4427 49.404 58.8667C50.348 58.2907 51.436 58.0027 52.668 58.0027C53.836 58.0027 54.868 58.2747 55.764 58.8187C56.66 59.3467 57.324 60.0667 57.756 60.9787L56.172 61.4827C55.82 60.8427 55.324 60.3467 54.684 59.9947C54.06 59.6267 53.364 59.4427 52.596 59.4427C51.764 59.4427 51.004 59.6587 50.316 60.0907C49.628 60.5227 49.076 61.1147 48.66 61.8667C48.26 62.6187 48.06 63.4747 48.06 64.4347C48.06 65.3787 48.268 66.2347 48.684 67.0027C49.1 67.7707 49.652 68.3867 50.34 68.8507C51.028 69.2987 51.788 69.5227 52.62 69.5227C53.164 69.5227 53.684 69.4267 54.18 69.2347C54.692 69.0427 55.132 68.7867 55.5 68.4667C55.884 68.1307 56.14 67.7707 56.268 67.3867L57.876 67.8667C57.652 68.4587 57.276 68.9947 56.748 69.4747C56.236 69.9387 55.628 70.3067 54.924 70.5787C54.236 70.8347 53.492 70.9627 52.692 70.9627ZM60.4159 70.7227V58.2427H62.0479V68.5147L69.6559 58.2187H71.1199V70.7227H69.4879V60.6187L61.9999 70.7227H60.4159ZM80.4259 70.9627C78.4099 70.9627 76.8819 70.3467 75.8419 69.1147C74.8179 67.8667 74.3059 66.1467 74.3059 63.9547C74.3059 62.4027 74.4339 61.0907 74.6899 60.0187C74.9459 58.9467 75.3219 58.0667 75.8179 57.3787C76.3139 56.6747 76.9219 56.0987 77.6419 55.6507C78.3779 55.2027 79.2179 54.8347 80.1619 54.5467L85.4179 52.8187L85.5619 54.2347L80.4979 55.8907C79.5379 56.2107 78.7379 56.6187 78.0979 57.1147C77.4579 57.6107 76.9539 58.2427 76.5859 59.0107C76.2339 59.7627 76.0019 60.7467 75.8899 61.9627C76.3059 61.0347 76.9459 60.3227 77.8099 59.8267C78.6739 59.3147 79.6739 59.0587 80.8099 59.0587C82.0259 59.0587 83.0579 59.3067 83.9059 59.8027C84.7699 60.2987 85.4259 60.9867 85.8739 61.8667C86.3219 62.7467 86.5459 63.7627 86.5459 64.9147C86.5459 66.1307 86.3059 67.1947 85.8259 68.1067C85.3619 69.0027 84.6739 69.7067 83.7619 70.2187C82.8659 70.7147 81.7539 70.9627 80.4259 70.9627ZM80.4259 69.5227C81.8499 69.5227 82.9459 69.1147 83.7139 68.2987C84.4979 67.4667 84.8899 66.3627 84.8899 64.9867C84.8899 63.6427 84.5059 62.5467 83.7379 61.6987C82.9859 60.8507 81.8819 60.4267 80.4259 60.4267C79.5939 60.4267 78.8419 60.6027 78.1699 60.9547C77.4979 61.3067 76.9619 61.8187 76.5619 62.4907C76.1779 63.1627 75.9859 63.9947 75.9859 64.9867C75.9859 65.8507 76.1539 66.6267 76.4899 67.3147C76.8419 68.0027 77.3459 68.5467 78.0019 68.9467C78.6579 69.3307 79.4659 69.5227 80.4259 69.5227ZM94.6195 70.9627C93.7235 70.9627 92.8915 70.7947 92.1235 70.4587C91.3715 70.1067 90.7155 69.6347 90.1555 69.0427C89.6115 68.4347 89.1875 67.7467 88.8835 66.9787C88.5795 66.1947 88.4275 65.3707 88.4275 64.5067C88.4275 63.6107 88.5795 62.7787 88.8835 62.0107C89.1875 61.2267 89.6195 60.5387 90.1795 59.9467C90.7395 59.3387 91.3955 58.8667 92.1475 58.5307C92.9155 58.1787 93.7475 58.0027 94.6435 58.0027C95.5395 58.0027 96.3635 58.1787 97.1155 58.5307C97.8675 58.8667 98.5235 59.3387 99.0835 59.9467C99.6435 60.5387 100.075 61.2267 100.379 62.0107C100.683 62.7787 100.835 63.6107 100.835 64.5067C100.835 65.3707 100.683 66.1947 100.379 66.9787C100.075 67.7467 99.6435 68.4347 99.0835 69.0427C98.5395 69.6347 97.8835 70.1067 97.1155 70.4587C96.3635 70.7947 95.5315 70.9627 94.6195 70.9627ZM90.0835 64.5307C90.0835 65.4587 90.2835 66.3067 90.6835 67.0747C91.0995 67.8267 91.6515 68.4267 92.3395 68.8747C93.0275 69.3067 93.7875 69.5227 94.6195 69.5227C95.4515 69.5227 96.2115 69.2987 96.8995 68.8507C97.5875 68.4027 98.1395 67.7947 98.5555 67.0267C98.9715 66.2427 99.1795 65.3947 99.1795 64.4827C99.1795 63.5547 98.9715 62.7067 98.5555 61.9387C98.1395 61.1707 97.5875 60.5627 96.8995 60.1147C96.2115 59.6667 95.4515 59.4427 94.6195 59.4427C93.7875 59.4427 93.0275 59.6747 92.3395 60.1387C91.6675 60.6027 91.1235 61.2187 90.7075 61.9867C90.2915 62.7387 90.0835 63.5867 90.0835 64.5307ZM103.901 70.7227V53.6827H105.581V61.2667H108.149L114.005 53.6827H115.949L109.541 61.9387L116.357 70.7227H114.293L108.197 62.8027H105.581V70.7227H103.901ZM123.354 70.9627C122.458 70.9627 121.626 70.7947 120.858 70.4587C120.106 70.1067 119.45 69.6347 118.89 69.0427C118.346 68.4347 117.922 67.7467 117.618 66.9787C117.314 66.1947 117.162 65.3707 117.162 64.5067C117.162 63.6107 117.314 62.7787 117.618 62.0107C117.922 61.2267 118.354 60.5387 118.914 59.9467C119.474 59.3387 120.13 58.8667 120.882 58.5307C121.65 58.1787 122.482 58.0027 123.378 58.0027C124.274 58.0027 125.098 58.1787 125.85 58.5307C126.602 58.8667 127.258 59.3387 127.818 59.9467C128.378 60.5387 128.81 61.2267 129.114 62.0107C129.418 62.7787 129.57 63.6107 129.57 64.5067C129.57 65.3707 129.418 66.1947 129.114 66.9787C128.81 67.7467 128.378 68.4347 127.818 69.0427C127.274 69.6347 126.618 70.1067 125.85 70.4587C125.098 70.7947 124.266 70.9627 123.354 70.9627ZM118.818 64.5307C118.818 65.4587 119.018 66.3067 119.418 67.0747C119.834 67.8267 120.386 68.4267 121.074 68.8747C121.762 69.3067 122.522 69.5227 123.354 69.5227C124.186 69.5227 124.946 69.2987 125.634 68.8507C126.322 68.4027 126.874 67.7947 127.29 67.0267C127.706 66.2427 127.914 65.3947 127.914 64.4827C127.914 63.5547 127.706 62.7067 127.29 61.9387C126.874 61.1707 126.322 60.5627 125.634 60.1147C124.946 59.6667 124.186 59.4427 123.354 59.4427C122.522 59.4427 121.762 59.6747 121.074 60.1387C120.402 60.6027 119.858 61.2187 119.442 61.9867C119.026 62.7387 118.818 63.5867 118.818 64.5307ZM138.059 75.8347V70.7227H137.507C136.275 70.7227 135.203 70.4347 134.291 69.8587C133.379 69.2827 132.675 68.5307 132.179 67.6027C131.683 66.6587 131.435 65.6267 131.435 64.5067C131.435 63.3707 131.683 62.3307 132.179 61.3867C132.691 60.4427 133.403 59.6827 134.315 59.1067C135.227 58.5307 136.291 58.2427 137.507 58.2427H138.059V53.2027H139.691V58.2427H140.243C141.459 58.2427 142.523 58.5307 143.435 59.1067C144.347 59.6827 145.051 60.4427 145.547 61.3867C146.059 62.3307 146.315 63.3707 146.315 64.5067C146.315 65.6267 146.067 66.6587 145.571 67.6027C145.075 68.5307 144.371 69.2827 143.459 69.8587C142.547 70.4347 141.475 70.7227 140.243 70.7227H139.691V75.8347H138.059ZM137.507 69.3547H138.107V59.6107H137.507C136.643 59.6107 135.875 59.8347 135.203 60.2827C134.531 60.7147 134.003 61.3067 133.619 62.0587C133.235 62.7947 133.043 63.6187 133.043 64.5307C133.043 65.4267 133.227 66.2427 133.595 66.9787C133.979 67.7147 134.507 68.2987 135.179 68.7307C135.851 69.1467 136.627 69.3547 137.507 69.3547ZM139.619 69.3547H140.243C141.123 69.3547 141.899 69.1467 142.571 68.7307C143.243 68.2987 143.763 67.7147 144.131 66.9787C144.515 66.2427 144.707 65.4267 144.707 64.5307C144.707 63.6187 144.515 62.7947 144.131 62.0587C143.747 61.3067 143.219 60.7147 142.547 60.2827C141.891 59.8347 141.123 59.6107 140.243 59.6107H139.619V69.3547ZM154.457 70.9627C153.561 70.9627 152.729 70.7947 151.961 70.4587C151.193 70.1067 150.529 69.6347 149.969 69.0427C149.409 68.4347 148.969 67.7387 148.649 66.9547C148.345 66.1707 148.193 65.3307 148.193 64.4347C148.193 63.2667 148.457 62.1947 148.985 61.2187C149.529 60.2427 150.273 59.4667 151.217 58.8907C152.161 58.2987 153.233 58.0027 154.433 58.0027C155.665 58.0027 156.737 58.2987 157.649 58.8907C158.577 59.4827 159.305 60.2667 159.833 61.2427C160.361 62.2027 160.625 63.2587 160.625 64.4107C160.625 64.5387 160.625 64.6667 160.625 64.7947C160.625 64.9067 160.617 64.9947 160.601 65.0587H149.897C149.977 65.9547 150.225 66.7547 150.641 67.4587C151.073 68.1467 151.625 68.6987 152.297 69.1147C152.985 69.5147 153.729 69.7147 154.529 69.7147C155.345 69.7147 156.113 69.5067 156.833 69.0907C157.569 68.6747 158.081 68.1307 158.369 67.4587L159.785 67.8427C159.529 68.4347 159.137 68.9707 158.609 69.4507C158.081 69.9307 157.457 70.3067 156.737 70.5787C156.033 70.8347 155.273 70.9627 154.457 70.9627ZM149.849 63.8827H159.089C159.025 62.9707 158.777 62.1707 158.345 61.4827C157.929 60.7947 157.377 60.2587 156.689 59.8747C156.017 59.4747 155.273 59.2747 154.457 59.2747C153.641 59.2747 152.897 59.4747 152.225 59.8747C151.553 60.2587 151.001 60.8027 150.569 61.5067C150.153 62.1947 149.913 62.9867 149.849 63.8827Z" fill="white"/>
<path d="M2.29614 47.5444L162.298 47.7742" stroke="white" stroke-width="3" stroke-linecap="round"/>
<path d="M2.29614 80.5295L162.298 80.7593" stroke="white" stroke-width="3" stroke-linecap="round"/>
<path d="M102.454 27.2148C102.38 27.545 102.312 27.8761 102.23 28.2034C101.478 31.2082 98.9877 33.4033 95.9001 33.724C95.0352 33.8134 94.1541 33.7478 93.2816 33.7773C93.1331 33.782 92.9324 33.8743 92.8524 33.9923C91.9619 35.3139 90.9124 36.489 89.6887 37.5081C89.6421 37.5471 89.5746 37.5604 89.5175 37.5861C89.5384 37.6241 89.5593 37.6612 89.5793 37.6993C89.7125 37.6993 89.8457 37.6993 89.9789 37.6993C92.0675 37.6993 94.1569 37.6993 96.2455 37.6993C97.0523 37.6993 97.3226 37.9838 97.2778 38.784C97.1399 41.2645 95.0552 43.3388 92.5727 43.4625C92.4214 43.4701 92.2692 43.472 92.1169 43.472C84.3185 43.472 76.5191 43.4739 68.7207 43.4711C66.2107 43.4701 64.2354 41.922 63.6797 39.5252C63.6112 39.2312 63.5779 38.9258 63.5655 38.6242C63.5408 38.0123 63.8395 37.7031 64.4542 37.7003C65.9737 37.6945 67.4923 37.6984 69.0118 37.6984C69.1498 37.6984 69.2868 37.6984 69.5228 37.6984C69.362 37.5461 69.263 37.4453 69.1565 37.3539C66.4076 34.9856 64.6312 32.0294 63.9042 28.4774C63.6825 27.3937 63.5979 26.27 63.5712 25.1624C63.5198 23.0749 63.556 20.9844 63.5569 18.8959C63.5569 18.1652 63.83 17.8921 64.5693 17.8911C66.3543 17.8883 68.1393 17.8892 69.9243 17.8921C70.0747 17.8921 70.2288 17.9083 70.3744 17.9454C70.7017 18.0291 70.932 18.3507 70.9196 18.6799C70.9063 19.0282 70.6418 19.3345 70.2926 19.3878C70.1432 19.4107 69.99 19.4097 69.8377 19.4097C68.4067 19.4116 66.9766 19.4107 65.5456 19.4107C65.4076 19.4107 65.2706 19.4107 65.0984 19.4107C65.0898 19.5562 65.0765 19.6771 65.0765 19.7979C65.0755 21.5953 65.0422 23.3946 65.0822 25.191C65.1983 30.5089 67.4933 34.6298 71.9596 37.5271C72.1175 37.6289 72.3316 37.6917 72.52 37.6917C77.1795 37.7003 81.838 37.7003 86.4974 37.6917C86.6858 37.6917 86.8999 37.6298 87.0579 37.529C90.9561 35.0484 93.2159 31.507 93.8306 26.9351C93.9543 26.0121 93.9305 25.0663 93.94 24.131C93.9562 22.5753 93.9448 21.0196 93.9448 19.4107C93.7602 19.4107 93.6003 19.4107 93.4405 19.4107C88.5279 19.4107 83.6163 19.4107 78.7038 19.4097C78.5391 19.4097 78.3736 19.4126 78.2109 19.3935C77.8341 19.3488 77.5582 19.051 77.542 18.6847C77.5268 18.3412 77.7665 18.0196 78.1195 17.9406C78.2784 17.9054 78.4449 17.893 78.6077 17.893C83.8618 17.8911 89.1159 17.8911 94.3701 17.8911C95.2283 17.8911 95.4643 18.1328 95.4643 19.0053C95.4643 19.4078 95.4643 19.8112 95.4643 20.2642C95.6441 20.2642 95.7907 20.2642 95.9381 20.2642C97.7736 20.2642 99.61 20.2699 101.445 20.2603C101.906 20.2575 102.258 20.3964 102.454 20.835C102.454 22.9597 102.454 25.0873 102.454 27.2148ZM65.1935 39.2284C65.5294 40.8487 66.9471 41.9496 68.695 41.9506C76.5153 41.9553 84.3356 41.961 92.1569 41.9353C92.7307 41.9334 93.3453 41.7784 93.8677 41.5357C94.8249 41.0904 95.4158 40.2931 95.666 39.2284C85.486 39.2284 75.3516 39.2284 65.1935 39.2284ZM95.4776 23.3013C95.6479 23.3013 95.785 23.3013 95.9229 23.3013C96.7831 23.3013 97.6432 23.2937 98.5034 23.3042C99.1323 23.3127 99.4092 23.5953 99.4139 24.2119C99.4197 24.9836 99.432 25.7552 99.4101 26.5269C99.3702 27.9132 98.7926 29.0369 97.6889 29.879C96.8497 30.5203 95.8868 30.761 94.8411 30.7344C94.7107 30.7315 94.5014 30.7762 94.4586 30.8628C94.2426 31.3005 94.0704 31.7582 93.882 32.2101C94.5528 32.2101 95.2055 32.2825 95.8373 32.1978C98.8402 31.7943 100.917 29.3947 100.933 26.3575C100.939 24.9531 100.934 23.5497 100.933 22.1453C100.933 22.0349 100.921 21.9245 100.914 21.8122C99.0885 21.8122 97.2883 21.8122 95.4767 21.8122C95.4776 22.3089 95.4776 22.7732 95.4776 23.3013ZM95.0647 29.2025C96.1161 29.2053 96.941 28.7619 97.5024 27.8494C98.08 26.9113 97.8535 25.8703 97.8935 24.8503C97.0666 24.8503 96.2797 24.8503 95.5604 24.8503C95.3939 26.3128 95.2312 27.7381 95.0647 29.2025Z" fill="white"/>
<path d="M79.4345 4.57495C80.0682 4.96697 80.1453 5.3076 79.7457 5.94605C79.2433 6.74721 79.2937 7.58833 79.9169 8.37236C80.4012 8.98036 80.837 9.61025 81.0131 10.3829C81.3137 11.7016 81.0178 12.8853 80.2033 13.951C80.0654 14.1317 79.9284 14.3163 79.7675 14.4762C79.5021 14.7407 79.0787 14.7626 78.7961 14.5475C78.4992 14.3211 78.406 13.9414 78.5896 13.5989C78.6838 13.4229 78.8142 13.264 78.9388 13.1051C79.8503 11.9376 79.8598 10.7197 78.9207 9.576C78.2176 8.71965 77.7751 7.78338 77.9236 6.65396C78.033 5.82521 78.2918 5.05736 79.0568 4.57495C79.1814 4.57495 79.308 4.57495 79.4345 4.57495Z" fill="white"/>
<path d="M85.3414 13.0613C85.3442 14.3001 84.7924 15.3011 83.9817 16.1822C83.7267 16.459 83.2995 16.4743 83.0112 16.2602C82.6981 16.029 82.6011 15.6255 82.8104 15.2811C82.9741 15.0118 83.1881 14.7749 83.3651 14.5132C83.9817 13.5979 83.9798 12.5132 83.3661 11.5922C83.0511 11.1202 82.6658 10.6816 82.4289 10.1744C81.8561 8.94701 82.0283 7.76145 82.8047 6.66153C83.073 6.28093 83.5174 6.18959 83.8694 6.4189C84.2196 6.64726 84.3309 7.09731 84.0569 7.48362C83.4279 8.36946 83.4736 9.35425 84.2833 10.2877C84.9665 11.0784 85.3347 12.0061 85.3414 13.0613Z" fill="white"/>
<path d="M75.0214 6.2373C75.6237 6.32484 75.9425 6.88147 75.6884 7.39717C75.5438 7.69023 75.3573 7.97188 75.2669 8.28111C75.0662 8.96904 75.2831 9.578 75.7294 10.1146C76.3307 10.8368 76.7798 11.6247 76.8892 12.5819C77.0538 14.0158 76.4896 15.1747 75.5495 16.1909C75.2983 16.462 74.8597 16.4706 74.5781 16.2546C74.2802 16.0263 74.1879 15.6438 74.3754 15.305C74.4791 15.1185 74.6199 14.952 74.7503 14.7827C75.6285 13.6447 75.6342 12.4325 74.7312 11.3107C74.1718 10.6161 73.736 9.87772 73.6865 8.96333C73.6389 8.08035 73.8882 7.283 74.4382 6.59792C74.5723 6.42855 74.8235 6.35434 75.0214 6.2373Z" fill="white"/>
<path d="M91.7992 25.8303C91.5984 28.8865 90.469 31.525 88.3833 33.7524C87.9837 34.1796 87.5403 34.2491 87.1902 33.9275C86.8571 33.6211 86.8609 33.1634 87.2463 32.7514C88.37 31.5535 89.2121 30.19 89.7335 28.6296C90.0722 27.6153 90.2521 26.5734 90.2911 25.5058C90.2958 25.3669 90.2987 25.2261 90.3282 25.091C90.4072 24.7323 90.7116 24.4858 91.0561 24.4849C91.4138 24.4839 91.7411 24.7484 91.7925 25.1252C91.8258 25.3612 91.7992 25.6048 91.7992 25.8303Z" fill="white"/>
<path d="M85.2044 34.5231C85.6011 34.5136 85.9551 34.8524 85.9694 35.2539C85.9836 35.6725 85.642 36.0275 85.2186 36.0351C84.8028 36.0427 84.4698 35.7287 84.4527 35.3129C84.4365 34.9085 84.7924 34.5327 85.2044 34.5231Z" fill="white"/>
<path d="M74.4525 17.9035C74.8587 17.913 75.1937 18.2641 75.1851 18.6714C75.1756 19.0834 74.834 19.4078 74.4192 19.3993C74.011 19.3907 73.6703 19.0386 73.6827 18.6381C73.6951 18.2337 74.0509 17.894 74.4525 17.9035Z" fill="white"/>
</svg>
