<svg width="60" height="30" viewBox="0 0 60 30" fill="none" xmlns="http://www.w3.org/2000/svg">
<path d="M17.4609 8.82714C18.0652 8.82714 18.5568 8.41338 18.5568 7.9048C18.5568 7.39621 18.0652 6.98246 17.4609 6.98246C16.8566 6.98246 16.3649 7.39621 16.3649 7.9048C16.3649 8.41338 16.8566 8.82714 17.4609 8.82714Z" fill="#235560"/>
<path d="M30.0009 6.98246C29.3966 6.98246 28.9049 7.39621 28.9049 7.9048C28.9049 8.41338 29.3966 8.82714 30.0009 8.82714C30.6052 8.82714 31.0968 8.41338 31.0968 7.9048C31.0968 7.39621 30.6052 6.98246 30.0009 6.98246Z" fill="#235560"/>
<path d="M42.541 6.98246C41.9367 6.98246 41.445 7.39621 41.445 7.9048C41.445 8.41338 41.9367 8.82714 42.541 8.82714C43.1453 8.82714 43.637 8.41338 43.637 7.9048C43.637 7.39621 43.1453 6.98246 42.541 6.98246Z" fill="#235560"/>
<path d="M59.6206 9.04043C59.1624 8.42005 58.3739 8.04962 57.5114 8.04962H55.3538C55.0205 8.04962 54.6946 8.09294 54.38 8.17656C53.3328 7.24857 51.0045 5.11485 50.7206 4.8451C49.0636 3.27127 47.3504 1.64392 44.6436 1.04868C40.4986 0.134519 36.0494 0.0693802 31.7466 0.00636238C31.1645 -0.00212079 28.8321 -0.00212079 28.2503 0.00636238C23.9505 0.0694812 19.5044 0.13462 15.3602 1.04858C12.653 1.64392 10.9397 3.27127 9.28288 4.8451C8.99884 5.11485 7.52296 6.54254 5.62504 8.17515C5.31436 8.09304 4.9846 8.04952 4.6498 8.04952H2.49964C1.62688 8.04952 0.832117 8.42217 0.373717 9.04649C-0.0826432 9.66778 -0.123203 10.4289 0.263917 11.0805L6.5896 21.8407C7.35784 23.1271 8.83132 23.9654 10.5056 24.0983L12.6234 28.8638C12.7199 29.0808 12.9663 29.2246 13.2416 29.2246H14.6882C14.9732 29.2246 15.2259 29.0707 15.315 28.8429L17.1633 24.119H42.8384L44.6866 28.8429C44.7758 29.0706 45.0285 29.2246 45.3135 29.2246H46.7601C47.0354 29.2246 47.2818 29.0808 47.3782 28.8638L49.4961 24.0983C51.1618 23.9635 52.6655 23.1072 53.4081 21.8378L59.7395 11.0806C59.7393 11.0808 59.7396 11.0804 59.7395 11.0806C60.1241 10.4255 60.0798 9.66243 59.6206 9.04043ZM48.7638 15.0588L47.7174 16.6235C47.4042 17.0935 46.9164 17.4521 46.3443 17.6551C46.001 17.7769 45.6273 17.8425 45.2427 17.8425C45.2427 17.8425 14.626 17.8407 14.5629 17.8371C13.6161 17.783 12.7558 17.3284 12.2856 16.6228L11.2413 15.0587L48.7638 15.0588ZM10.271 5.58193C11.8673 4.06566 13.375 2.63352 15.6945 2.12342C19.6858 1.24309 24.0515 1.17906 28.2734 1.11725C28.8524 1.10877 31.1445 1.10877 31.7237 1.11725C35.9486 1.17916 40.3172 1.24309 44.3094 2.12362C46.6286 2.63362 48.1362 4.06576 49.7326 5.58203C50.0206 5.85551 51.6606 7.36632 52.187 7.83936C52.478 8.10092 52.7699 8.36178 53.0625 8.62203C53.0888 8.64546 53.16 8.68838 53.1706 8.71878C53.1891 8.7722 52.8768 9.01246 52.8135 9.07931C52.4956 9.4144 52.2765 9.80664 52.0277 10.1786C51.8097 10.5046 51.5918 10.8305 51.3737 11.1565C51.1296 11.5215 50.8856 11.8863 50.6415 12.2513C50.424 12.5764 50.2067 12.9015 49.9893 13.2265C49.8513 13.4328 49.7134 13.6391 49.5754 13.8453C49.5525 13.8796 49.5296 13.9139 49.5066 13.9481H10.4996C10.451 13.8753 7.50148 9.43056 7.31116 9.20818C7.1794 9.05417 7.03228 8.90864 6.86248 8.78341C6.79696 8.73504 6.85312 8.7001 6.89836 8.6599C7.16536 8.42268 7.43164 8.18495 7.6972 7.94661C8.1406 7.54861 9.98296 5.85551 10.271 5.58193ZM14.2107 28.1138H13.6995L11.9242 24.1191H15.7737L14.2107 28.1138ZM46.3023 28.1138H45.7911L44.2282 24.1191H48.0777L46.3023 28.1138ZM58.5568 10.5877L52.2246 21.3461C51.634 22.3559 50.3828 23.0083 49.0371 23.0083H10.9738C9.61096 23.0083 8.38288 22.3697 7.77088 21.3449L1.44568 10.5858C1.26076 10.2745 1.27936 9.92642 1.49656 9.63062C1.7128 9.33623 2.08768 9.16051 2.49964 9.16051H4.6498C5.34832 9.16051 6.01624 9.50994 6.3676 10.012C6.57544 10.3088 6.76264 10.6198 6.96352 10.921C7.48288 11.6993 8.00212 12.4776 8.52148 13.256C8.8558 13.757 9.19 14.258 9.52432 14.7589C9.52792 14.7643 9.53164 14.7698 9.5356 14.7758L11.1347 17.1669C11.869 18.2689 13.2555 18.9534 14.7533 18.9534H45.2427C46.7451 18.9534 48.1344 18.2689 48.8682 17.1676L53.6687 9.98934C53.8592 9.70091 54.1451 9.47307 54.498 9.32927C54.7701 9.21717 55.058 9.16041 55.3536 9.16041H57.5112C57.9143 9.16041 58.2838 9.33472 58.4993 9.62668C58.7193 9.9246 58.7402 10.2748 58.5568 10.5877Z" fill="#235560"/>
</svg>
