<svg width="58" height="32" viewBox="0 0 58 32" fill="none" xmlns="http://www.w3.org/2000/svg">
<path d="M56.9187 0.841162C56.429 0.306562 55.7323 0 55.0074 0H54.2382C52.2212 0 50.5672 1.51515 50.3909 3.5244L49.5588 13.0058C49.4851 13.8461 48.7933 14.4798 47.9497 14.4798H40.7468C38.4387 14.4798 36.561 16.3575 36.561 18.6656V19.0815C36.561 20.4759 37.6953 21.6102 39.0897 21.6102H40.6336L39.1133 26.5754C39.1121 26.5791 39.111 26.5829 39.1099 26.5866L37.9478 30.3819C37.8113 30.8275 38.0619 31.2992 38.5074 31.4356C38.5898 31.4608 38.673 31.4729 38.7548 31.4729C39.1158 31.4729 39.4501 31.2392 39.5612 30.876L40.5413 27.6752H52.1142L53.0943 30.876C53.2055 31.2392 53.5396 31.4729 53.9007 31.4729C53.9826 31.4729 54.0659 31.4608 54.1481 31.4356C54.5936 31.2992 54.8442 30.8274 54.7078 30.3819L51.9496 21.3744C52.4339 21.2373 52.9016 21.0422 53.3403 20.7908C53.7446 20.559 53.8844 20.0435 53.6526 19.6392C53.4209 19.235 52.9052 19.0952 52.501 19.3269C51.821 19.7168 51.0453 19.9229 50.2577 19.9229H41.775C41.7722 19.9229 41.7694 19.9229 41.7667 19.9229H39.09C38.6261 19.9229 38.2487 19.5455 38.2487 19.0816V18.6657C38.2487 17.2881 39.3694 16.1674 40.747 16.1674H47.9499C49.6749 16.1674 51.0893 14.8716 51.2401 13.1534L52.0721 3.67189C52.1714 2.54059 53.1026 1.68739 54.2383 1.68739H55.0075C55.2642 1.68739 55.5012 1.79168 55.6746 1.98101C55.8481 2.17035 55.9313 2.41549 55.9088 2.67131L54.7566 15.8013C54.7283 16.1251 54.6651 16.4455 54.5692 16.7535C54.4306 17.1984 54.679 17.6715 55.1239 17.81C55.5694 17.9486 56.0418 17.7001 56.1805 17.2554C56.3123 16.8321 56.3988 16.3926 56.4378 15.9488L57.59 2.8188C57.653 2.09666 57.4085 1.37576 56.9187 0.841162ZM42.3981 21.6103H50.2568L51.5972 25.9877H41.0577L42.3981 21.6103Z" fill="#235560"/>
<path d="M16.8526 14.4799H9.6497C8.80606 14.4799 8.11441 13.8463 8.04061 13.0059L7.20856 3.52454C7.03227 1.51529 5.3783 0.000139475 3.36129 0.000139475H2.59212C1.86717 0.000139475 1.17046 0.306702 0.68075 0.841302C0.191037 1.3759 -0.0535378 2.0968 0.00968716 2.81916L1.16191 15.9492C1.29792 17.4986 2.00442 18.9305 3.15136 19.9813C3.87192 20.6414 4.72749 21.1149 5.64954 21.3759L2.89171 30.3821C2.75525 30.8277 3.0059 31.2994 3.4514 31.4359C3.53375 31.4611 3.617 31.4731 3.69879 31.4731C4.0598 31.4731 4.39404 31.2395 4.50519 30.8762L5.48529 27.6755H17.0582L18.0383 30.8762C18.1494 31.2395 18.4835 31.4731 18.8447 31.4731C18.9266 31.4731 19.0098 31.4611 19.0921 31.4359C19.5375 31.2994 19.7882 30.8276 19.6517 30.3821L18.4896 26.5868C18.4885 26.5831 18.4874 26.5794 18.4862 26.5757L16.9659 21.6105H18.5098C19.9042 21.6105 21.0384 20.4762 21.0384 19.0817V18.6658C21.0384 16.3576 19.1607 14.4799 16.8526 14.4799ZM6.002 25.9878L7.34232 21.6104H15.201L16.5413 25.9878H6.002ZM19.3509 19.0816C19.3509 19.5456 18.9736 19.9229 18.5098 19.9229H15.8336C15.8302 19.9229 15.827 19.9229 15.8236 19.9229H7.34187C7.16142 19.9229 6.9839 19.9113 6.80907 19.891C6.8093 19.891 6.80896 19.891 6.80907 19.891C4.69812 19.647 3.03324 17.9712 2.84289 15.8014L1.69066 2.67156C1.66816 2.41563 1.75141 2.17049 1.92489 1.98115C2.09825 1.79181 2.33517 1.68753 2.59201 1.68753H3.36117C4.49686 1.68753 5.42814 2.54061 5.52736 3.67203L6.35941 13.1534C6.51016 14.8716 7.92462 16.1673 9.64959 16.1673H16.8525C18.2301 16.1673 19.3508 17.288 19.3508 18.6656L19.3509 19.0816Z" fill="#235560"/>
<path d="M35.2064 28.6898C34.8582 27.3514 33.6493 26.4167 32.2663 26.4167H31.7441V11.0566H42.1339C42.7324 11.0566 43.2926 10.7905 43.6708 10.3267C44.049 9.86275 44.197 9.26043 44.0764 8.67408C43.7134 6.90963 42.1427 5.62904 40.3415 5.62904H22.7996C22.3335 5.62904 21.9558 6.00681 21.9558 6.47279C21.9558 6.93876 22.3335 7.31654 22.7996 7.31654H40.3415C41.3456 7.31654 42.2211 8.03046 42.4234 9.01394C42.448 9.13364 42.3961 9.2197 42.363 9.26042C42.3298 9.30104 42.256 9.36921 42.1339 9.36921H15.4654C15.3433 9.36921 15.2695 9.30104 15.2363 9.26042C15.2032 9.21981 15.1513 9.13364 15.1759 9.01405C15.3782 8.03046 16.2536 7.31654 17.2578 7.31654H18.8423C19.3084 7.31654 19.686 6.93876 19.686 6.47279C19.686 6.00681 19.3084 5.62904 18.8423 5.62904H17.2578C15.4565 5.62904 13.8857 6.90963 13.5229 8.67419C13.4024 9.26054 13.5503 9.86286 13.9285 10.3267C14.3067 10.7905 14.8669 11.0566 15.4654 11.0566H25.8553V26.4168H25.3331C23.9501 26.4168 22.7412 27.3515 22.393 28.6898L22.1949 29.4511C22.0681 29.9388 22.172 30.447 22.4802 30.8457C22.7884 31.2443 23.2542 31.473 23.758 31.473H33.8413C34.3452 31.473 34.8109 31.2444 35.1191 30.8457C35.4272 30.4471 35.5312 29.9388 35.4044 29.4511L35.2064 28.6898ZM27.5428 11.0566H30.0567V26.4168H27.5428V11.0566ZM23.8516 29.7854L24.0262 29.1146C24.1808 28.5197 24.7183 28.1043 25.333 28.1043H32.2662C32.8809 28.1043 33.4183 28.5197 33.573 29.1146L33.7476 29.7854H23.8516Z" fill="#235560"/>
</svg>
