<svg width="36" height="36" viewBox="0 0 36 36" fill="none" xmlns="http://www.w3.org/2000/svg">
<g clip-path="url(#clip0_97_51)">
<path d="M24.1975 30.4622C22.9943 30.3528 21.9545 30.0773 20.9395 29.7027C18.5234 28.811 16.3793 27.4569 14.3952 25.8348C11.6121 23.5592 9.28731 20.8903 7.52954 17.7459C6.61916 16.1183 5.93516 14.4027 5.61323 12.5522C5.51562 11.9907 5.55993 11.4895 5.87147 10.9952C7.01447 9.17927 8.33054 7.51289 9.9817 6.12827C10.0869 6.03966 10.2053 5.96696 10.3175 5.88666C10.9807 5.41173 11.5276 5.52389 12.1832 6.02235C12.2982 6.10958 12.4006 6.22312 12.4844 6.3415C13.5658 7.8722 14.607 9.4285 15.4191 11.124C15.5818 11.4639 15.7015 11.8273 15.8165 12.1873C15.9584 12.6318 15.8698 13.0576 15.5672 13.4017C15.2668 13.7437 14.9213 14.0469 14.5869 14.3577C14.3661 14.5633 14.1369 14.762 13.8974 14.9462C13.7437 15.0646 13.7098 15.174 13.7804 15.3602C15.0362 18.6667 17.3174 20.945 20.6197 22.2078C20.8115 22.2812 20.9243 22.2507 21.0565 22.0894C21.4345 21.629 21.8305 21.1832 22.2279 20.7394C22.7735 20.1295 23.4339 19.9398 24.1879 20.2929C24.9833 20.6653 25.7857 21.0337 26.5389 21.4816C27.5622 22.0894 28.5425 22.7679 29.538 23.4221C29.9575 23.6977 30.2365 24.0798 30.3702 24.5693C30.4498 24.8614 30.4283 25.1377 30.2705 25.3917C30.1022 25.6624 29.9395 25.9428 29.7305 26.1796C28.3085 27.792 26.6635 29.1378 24.8033 30.2157C24.5866 30.3424 24.3339 30.4082 24.1975 30.4622ZM11.1358 7.28373C11.0638 7.3412 11.0361 7.36127 11.0105 7.38412C9.6577 8.61781 8.48147 10.0024 7.44993 11.5151C7.24639 11.8135 7.20416 12.0877 7.26993 12.429C7.55931 13.9347 8.1007 15.3491 8.8387 16.6839C11.1849 20.9305 14.4679 24.2799 18.6231 26.7701C20.2459 27.7428 21.9718 28.4801 23.8639 28.7536C23.9926 28.7723 24.1574 28.7356 24.2668 28.665C25.6978 27.747 26.9965 26.6663 28.1797 25.4471C28.3562 25.265 28.5259 25.0753 28.7045 24.8822C28.6248 24.8144 28.575 24.7666 28.5196 24.7264C26.9959 23.6132 25.3779 22.6592 23.6721 21.8533C23.5447 21.7931 23.4692 21.8139 23.3862 21.9136C23.1432 22.2057 22.9071 22.5041 22.6468 22.781C22.2695 23.1833 21.8818 23.5765 21.4795 23.9531C21.3979 24.03 21.2255 24.0625 21.1092 24.0403C19.782 23.7897 18.5899 23.2082 17.469 22.4813C14.8777 20.8017 13.0555 18.5102 12.1195 15.5568C11.8018 14.5543 11.7478 14.7593 12.5238 13.9707C12.9891 13.4986 13.5139 13.0846 14.0192 12.6526C14.1653 12.528 14.2069 12.4255 14.103 12.2427C13.4252 11.0513 12.7703 9.84666 12.0815 8.66212C11.8059 8.18927 11.4612 7.7545 11.1358 7.28373Z" fill="white"/>
</g>
<defs>
<clipPath id="clip0_97_51">
<rect width="36" height="36" fill="white"/>
</clipPath>
</defs>
</svg>
