<?xml version="1.0" encoding="utf-8"?>
<!-- Generator: Adobe Illustrator 24.3.0, SVG Export Plug-In . SVG Version: 6.00 Build 0)  -->
<svg version="1.1" id="Слой_1" xmlns="http://www.w3.org/2000/svg" xmlns:xlink="http://www.w3.org/1999/xlink" x="0px" y="0px"
	 viewBox="0 0 520 520" style="enable-background:new 0 0 520 520;" xml:space="preserve">
<path d="M-220.62,287.34c-5.81,14.28-12.46,18.7-28.19,18.71c-11.97,0.01-23.95-0.17-35.92,0.05c-10.06,0.19-18.69-3.09-25.65-10.18
	c-8.21-8.36-15.74-17.4-24.13-25.57c-8.82-8.58-18.25-16.55-27.57-24.61c-2.01-1.74-4.67-2.71-7.35-4.21
	c-0.24,1.37-0.5,2.2-0.51,3.03c-0.11,9.59-0.94,19.24-0.11,28.75c1.81,20.74-7.36,29.65-27.59,31.93
	c-31.55,3.56-59.88-5.66-85.94-22.88c-23.94-15.82-43.24-36.41-59.95-59.51c-25.18-34.8-44.6-72.51-56.73-113.82
	c-1.4-4.76-2.36-9.68-3.18-14.58c-2.6-15.59,6.23-27.13,22.01-27.73c15.07-0.58,30.19-0.42,45.27-0.02
	c10.66,0.29,18.44,5.91,22.78,15.61c3.15,7.03,5.55,14.4,8.36,21.58c9.88,25.26,21.65,49.54,37.71,71.54
	c1.67,2.29,3.55,4.43,5.83,7.26c0.17-1.19,0.28-1.59,0.28-1.99c0-13.96-0.02-27.92,0-41.89c0-3.37,0.21-6.73,0.2-10.1
	c-0.03-8.74-2.47-16.65-7.95-23.62c-2.14-2.72-4.07-5.72-5.45-8.88c-6.19-14.09,2.68-29.12,18.07-29.51
	c22.06-0.55,44.16-0.43,66.23-0.01c11.86,0.23,18.71,8.21,19.73,22.1c0.59,8.06,0.49,16.19,0.48,24.29
	c-0.01,16.71-0.18,33.42-0.27,50.14c0,0.72,0.08,1.44,0.17,3.01c1.76-1.66,3.14-2.8,4.33-4.11c12.74-14.07,22.38-30.24,31.18-46.9
	c5.17-9.79,9.78-19.89,14.34-29.98c5.56-12.33,14.89-18.66,28.4-18.73c12.97-0.06,25.95-0.04,38.92,0.01
	c2.23,0.01,4.49,0.21,6.69,0.59c13.38,2.31,21.08,13.11,17.42,26.22c-2.62,9.39-6.44,18.6-10.91,27.28
	c-12.29,23.85-26.99,46.27-42.49,68.16c-3.32,4.69-3.23,4.59,0.58,8.84c14.49,16.14,29.18,32.11,43.25,48.6
	c8,9.38,14.51,19.91,17.69,32.1C-220.62,281.35-220.62,284.35-220.62,287.34z M-580.04,90.48c1.01,4.48,1.68,8.54,2.85,12.45
	c11.42,38.23,29.52,73.16,52.75,105.46c14.87,20.68,31.96,39.28,53.3,53.56c22.03,14.74,45.94,22.55,72.78,19.52
	c3.33-0.38,4.58-1.5,4.54-5.07c-0.12-12.59-0.24-25.21,0.37-37.78c0.74-15.24,8.68-21.93,23.93-21c9.23,0.56,17.17,4.76,23.94,10.49
	c10.64,9,20.83,18.57,30.83,28.29c6.7,6.51,12.67,13.76,19.09,20.56c2.77,2.93,5.92,5.22,10.36,5.18
	c12.47-0.11,24.95-0.03,37.42-0.05c0.93,0,1.87-0.18,3.16-0.31c-0.63-1.7-0.94-3.21-1.7-4.43c-3.43-5.48-6.42-11.38-10.62-16.23
	c-14.12-16.3-28.56-32.33-43.11-48.25c-11.31-12.37-12.25-22.38-2.75-36.22c3.67-5.35,7.42-10.64,10.97-16.06
	c12.77-19.5,25.64-38.94,35.69-60.05c1.47-3.1,2.56-6.38,4.02-10.07c-13.22,0-25.68,0.16-38.13-0.08c-4.44-0.09-6.65,1.62-8.38,5.64
	c-10.44,24.34-22.87,47.61-38.56,69.05c-7.18,9.81-14.81,19.18-25.52,25.43c-16.68,9.73-30.32,2.66-30.78-16.62
	c-0.62-26.06-0.39-52.14-0.53-78.21c-0.01-1.59,0-3.18,0-4.98c-18.62,0-36.87,0-55.52,0c0.4,0.67,0.6,1.09,0.87,1.45
	c8.54,11.05,11.6,23.81,11.62,37.49c0.02,17.34,0.05,34.68-0.01,52.02c-0.01,4.11-0.13,8.24-0.61,12.32
	c-1.9,16.1-15.91,23.08-29.45,14.23c-5.64-3.69-10.78-8.56-15.15-13.73c-15.83-18.74-26.96-40.38-36.8-62.65
	c-5.33-12.06-9.83-24.49-14.55-36.81c-1.23-3.21-2.94-4.76-6.61-4.62c-6.73,0.27-13.47,0.08-20.21,0.08
	C-566.86,90.48-573.2,90.48-580.04,90.48z"/>
<path d="M-283.68,465.71c-2.49,11.67-5.03,23.32-7.45,35c-13.63,65.85-27.24,131.71-40.85,197.56c-1.84,8.9-3.67,17.81-5.55,26.7
	c-0.41,1.94-0.89,3.89-1.52,5.77c-6.59,19.85-26.21,27.56-44.06,16.64c-12.42-7.6-24.16-16.31-36.19-24.56
	c-13.47-9.23-26.91-18.5-40.36-27.75c-0.2-0.14-0.45-0.2-1.06-0.45c-0.95,0.84-2.07,1.77-3.13,2.76
	c-8.91,8.36-17.79,16.76-26.73,25.09c-6.9,6.43-14.87,10.69-24.54,10.05c-12.27-0.81-20.04-8.06-24.77-18.87
	c-12.17-27.83-24.26-55.7-36.26-83.61c-1.09-2.53-2.57-3.93-5.1-4.85c-22.59-8.18-45.18-16.36-67.67-24.82
	c-4.12-1.55-8.22-3.81-11.54-6.67c-8.65-7.44-8.82-18.92-0.22-26.42c3.94-3.44,8.81-6.19,13.72-8.06
	c78.17-29.79,156.41-59.39,234.64-89.04c29.33-11.12,58.66-22.26,88-33.36c6.35-2.4,12.82-4.03,19.72-2.77
	c10.37,1.89,16.87,7.97,19.83,17.99c0.38,1.3,0.75,2.61,1.12,3.92C-283.68,459.23-283.68,462.47-283.68,465.71z M-500.84,639.26
	c1.03,0.79,1.77,1.42,2.57,1.97c41.07,28.28,82.14,56.57,123.22,84.82c9.39,6.46,13.45,4.68,15.78-6.63
	c6.07-29.53,12.19-59.04,18.29-88.56c11.39-55.14,22.81-110.27,34.09-165.43c0.56-2.76-0.15-5.78-0.27-8.67
	c-2.98,0.32-6.2,0.02-8.92,1.05c-106.58,40.27-213.11,80.65-319.64,121.03c-0.83,0.31-1.6,0.75-2.91,1.37
	c1.64,0.67,2.65,1.11,3.68,1.49c19.99,7.32,40.03,14.53,59.94,22.05c3.53,1.33,6.18,1,9.38-0.72
	c48.37-26.05,96.8-51.99,145.22-77.96c8.89-4.77,17.74-9.63,26.69-14.28c7.64-3.97,15.93,0.14,16.97,8.3
	c0.59,4.67-1.81,8.01-5.11,11.03c-33.21,30.41-66.39,60.85-99.57,91.3C-487.83,627.29-494.23,633.18-500.84,639.26z M-463.41,574.4
	c-0.14-0.18-0.29-0.37-0.43-0.55c-30.27,16.23-60.53,32.47-91.09,48.86c7.93,18.15,15.77,36.09,23.61,54.04
	c0.74-1.28,0.85-2.45,0.87-3.61c0.11-10.35,0.29-20.7,0.26-31.05c-0.02-4.43,1.47-7.88,4.79-10.84
	c8.64-7.73,17.13-15.64,25.67-23.48C-487.62,596.65-475.51,585.52-463.41,574.4z M-507.82,707.88c9.66-9.07,18.83-17.69,28.24-26.53
	c-9.5-6.54-18.54-12.75-28.24-19.42C-507.82,677.55-507.82,692.27-507.82,707.88z"/>
<path d="M349.52,440.01c-17.38-1.58-32.4-5.56-47.06-10.97c-34.9-12.88-65.87-32.44-94.53-55.87
	c-40.2-32.87-73.78-71.42-99.17-116.84c-13.15-23.51-23.03-48.29-27.68-75.02c-1.41-8.11-0.77-15.35,3.73-22.49
	c16.51-26.23,35.52-50.3,59.37-70.3c1.52-1.28,3.23-2.33,4.85-3.49c9.58-6.86,17.48-5.24,26.95,1.96c1.66,1.26,3.14,2.9,4.35,4.61
	c15.62,22.11,30.66,44.59,42.39,69.08c2.35,4.91,4.08,10.16,5.74,15.36c2.05,6.42,0.77,12.57-3.6,17.54
	c-4.34,4.94-9.33,9.32-14.16,13.81c-3.19,2.97-6.5,5.84-9.96,8.5c-2.22,1.71-2.71,3.29-1.69,5.98
	c18.14,47.76,51.09,80.67,98.79,98.91c2.77,1.06,4.4,0.62,6.31-1.71c5.46-6.65,11.18-13.09,16.92-19.5
	c7.88-8.81,17.42-11.55,28.31-6.45c11.49,5.38,23.08,10.7,33.96,17.17c14.78,8.78,28.94,18.58,43.32,28.03
	c6.06,3.98,10.09,9.5,12.02,16.57c1.15,4.22,0.84,8.21-1.44,11.88c-2.43,3.91-4.78,7.96-7.8,11.38
	c-20.54,23.29-44.3,42.73-71.17,58.3C355.14,438.28,351.49,439.23,349.52,440.01z M160.85,105.21c-1.04,0.83-1.44,1.12-1.81,1.45
	c-19.54,17.82-36.53,37.82-51.43,59.67c-2.94,4.31-3.55,8.27-2.6,13.2c4.18,21.75,12,42.18,22.66,61.46
	c33.89,61.34,81.31,109.72,141.33,145.69c23.44,14.05,48.37,24.7,75.7,28.65c1.86,0.27,4.24-0.26,5.82-1.28
	c20.67-13.26,39.43-28.87,56.52-46.48c2.55-2.63,5-5.37,7.58-8.16c-1.15-0.98-1.87-1.67-2.67-2.25
	c-22.01-16.08-45.38-29.86-70.02-41.5c-1.84-0.87-2.93-0.57-4.13,0.87c-3.51,4.22-6.92,8.53-10.68,12.53
	c-5.45,5.81-11.05,11.49-16.86,16.93c-1.18,1.11-3.67,1.58-5.35,1.26c-19.17-3.62-36.39-12.02-52.58-22.52
	c-37.43-24.26-63.75-57.36-77.27-100.02c-4.59-14.48-5.37-11.52,5.84-22.91c6.72-6.82,14.3-12.8,21.6-19.04
	c2.11-1.8,2.71-3.28,1.21-5.92c-9.79-17.21-19.25-34.61-29.2-51.72C170.53,118.29,165.55,112.01,160.85,105.21z"/>
</svg>
