<svg width="36" height="36" viewBox="0 0 36 36" fill="none" xmlns="http://www.w3.org/2000/svg">
<g clip-path="url(#clip0_97_62)">
<path d="M31.2452 9.18756C31.0729 9.99549 30.897 10.802 30.7295 11.6106C29.7859 16.1695 28.8436 20.729 27.9014 25.2879C27.774 25.904 27.6473 26.5209 27.5172 27.1363C27.4888 27.2706 27.4555 27.4056 27.4119 27.5358C26.9557 28.91 25.5974 29.4438 24.3616 28.6878C23.5018 28.1616 22.689 27.5586 21.8562 26.9875C20.9236 26.3485 19.9932 25.7067 19.062 25.0663C19.0482 25.0566 19.0309 25.0525 18.9886 25.0352C18.9229 25.0933 18.8453 25.1577 18.7719 25.2263C18.1551 25.805 17.5403 26.3866 16.9214 26.9633C16.4437 27.4084 15.8919 27.7033 15.2225 27.659C14.373 27.6029 13.8351 27.101 13.5076 26.3526C12.6651 24.4259 11.8281 22.4965 10.9973 20.5643C10.9219 20.3891 10.8194 20.2922 10.6442 20.2285C9.08031 19.6622 7.51639 19.0959 5.95939 18.5102C5.67416 18.4029 5.39031 18.2464 5.16047 18.0484C4.56162 17.5333 4.54985 16.7386 5.14523 16.2193C5.418 15.9812 5.75516 15.7908 6.09508 15.6613C11.5069 13.5989 16.9235 11.5497 22.3394 9.49702C24.3699 8.72718 26.4005 7.95595 28.4317 7.18749C28.8713 7.02133 29.3192 6.90849 29.7969 6.99572C30.5149 7.12656 30.9649 7.54749 31.1698 8.24118C31.1961 8.33118 31.2217 8.42187 31.2473 8.51256C31.2452 8.73895 31.2452 8.96326 31.2452 9.18756ZM16.2111 21.2026C16.2824 21.2573 16.3336 21.3009 16.389 21.3389C19.2323 23.2968 22.0756 25.2553 24.9196 27.2111C25.5697 27.6583 25.8508 27.5351 26.0121 26.7521C26.4323 24.7077 26.856 22.6647 27.2783 20.621C28.0669 16.8036 28.8575 12.9869 29.6384 9.16818C29.6772 8.9771 29.628 8.76802 29.6197 8.56795C29.4134 8.5901 29.1905 8.56933 29.0022 8.64064C21.6235 11.4286 14.2484 14.2241 6.87323 17.0196C6.81577 17.0411 6.76247 17.0716 6.67177 17.1145C6.78531 17.1609 6.85524 17.1913 6.92654 17.2176C8.31047 17.7244 9.69785 18.2236 11.0762 18.7442C11.3206 18.8363 11.5041 18.8134 11.7256 18.6943C15.0743 16.8909 18.4272 15.095 21.7793 13.2971C22.3948 12.9669 23.0075 12.6304 23.6271 12.3085C24.156 12.0336 24.7299 12.3182 24.8019 12.8831C24.8428 13.2064 24.6766 13.4376 24.4482 13.6467C22.149 15.752 19.8519 17.8594 17.5549 19.9675C17.1118 20.3739 16.6687 20.7816 16.2111 21.2026ZM18.8024 16.7123C18.7927 16.6998 18.7823 16.6866 18.7726 16.6742C16.677 17.7978 14.5821 18.9221 12.4664 20.0568C13.0154 21.3133 13.5582 22.5553 14.1009 23.798C14.1522 23.7094 14.1598 23.6284 14.1612 23.5481C14.1688 22.8316 14.1812 22.115 14.1792 21.3985C14.1785 21.0918 14.2809 20.8529 14.5108 20.648C15.1089 20.1129 15.6967 19.5653 16.2879 19.0225C17.1263 18.2526 17.9647 17.4821 18.8024 16.7123ZM15.7279 25.9532C16.3966 25.3253 17.0315 24.7285 17.6829 24.1165C17.0252 23.6637 16.3994 23.2338 15.7279 22.772C15.7279 23.8534 15.7279 24.8725 15.7279 25.9532Z" fill="white"/>
</g>
<defs>
<clipPath id="clip0_97_62">
<rect width="36" height="36" fill="white"/>
</clipPath>
</defs>
</svg>
