<svg width="36" height="36" viewBox="0 0 36 36" fill="none" xmlns="http://www.w3.org/2000/svg">
<g clip-path="url(#clip0_97_56)">
<path d="M31.2494 24.2543C30.8471 25.2429 30.3868 25.5489 29.2978 25.5496C28.4691 25.5503 27.6397 25.5378 26.811 25.5531C26.1145 25.5662 25.5171 25.3391 25.0352 24.8483C24.4668 24.2695 23.9455 23.6437 23.3647 23.0781C22.7541 22.4841 22.1012 21.9323 21.456 21.3743C21.3168 21.2538 21.1327 21.1867 20.9471 21.0828C20.9305 21.1777 20.9125 21.2351 20.9118 21.2926C20.9042 21.9565 20.8468 22.6246 20.9042 23.283C21.0295 24.7188 20.3947 25.3357 18.9941 25.4935C16.8099 25.74 14.8486 25.1017 13.0445 23.9095C11.3871 22.8143 10.0509 21.3888 8.89407 19.7896C7.15084 17.3804 5.80638 14.7697 4.96661 11.9098C4.86968 11.5802 4.80322 11.2396 4.74645 10.9004C4.56645 9.82107 5.17776 9.02215 6.27022 8.98061C7.31353 8.94045 8.3603 8.95153 9.4043 8.97922C10.1423 8.9993 10.6809 9.38838 10.9814 10.0599C11.1995 10.5466 11.3656 11.0568 11.5601 11.5539C12.2441 13.3027 13.059 14.9836 14.1708 16.5067C14.2865 16.6652 14.4166 16.8134 14.5745 17.0093C14.5862 16.9269 14.5938 16.8992 14.5938 16.8715C14.5938 15.9051 14.5925 14.9386 14.5938 13.9715C14.5938 13.7381 14.6084 13.5055 14.6077 13.2722C14.6056 12.6671 14.4367 12.1195 14.0573 11.637C13.9091 11.4487 13.7755 11.241 13.68 11.0222C13.2515 10.0468 13.8655 9.00622 14.931 8.97922C16.4582 8.94115 17.9882 8.94945 19.5161 8.97853C20.3372 8.99445 20.8115 9.54691 20.8821 10.5085C20.9229 11.0665 20.916 11.6294 20.9153 12.1901C20.9146 13.347 20.9028 14.5038 20.8966 15.6614C20.8966 15.7112 20.9021 15.7611 20.9084 15.8698C21.0302 15.7548 21.1258 15.6759 21.2081 15.5852C22.0901 14.6111 22.7575 13.4917 23.3668 12.3383C23.7247 11.6605 24.0438 10.9613 24.3595 10.2628C24.7445 9.40915 25.3904 8.97091 26.3257 8.96607C27.2236 8.96191 28.1222 8.9633 29.0201 8.96676C29.1745 8.96745 29.331 8.9813 29.4833 9.00761C30.4096 9.16753 30.9427 9.91522 30.6893 10.8228C30.5079 11.4729 30.2435 12.1105 29.934 12.7115C29.0831 14.3626 28.0655 15.9148 26.9924 17.4302C26.7625 17.7549 26.7688 17.748 27.0325 18.0422C28.0357 19.1596 29.0527 20.2652 30.0268 21.4068C30.5806 22.0562 31.0313 22.7852 31.2515 23.6291C31.2494 23.8396 31.2494 24.0473 31.2494 24.2543ZM6.36645 10.6255C6.43638 10.9357 6.48276 11.2168 6.56376 11.4875C7.35438 14.1341 8.60745 16.5524 10.2157 18.7885C11.2451 20.2202 12.4283 21.5079 13.9057 22.4965C15.4308 23.517 17.0861 24.0577 18.9443 23.8479C19.1748 23.8216 19.2614 23.7441 19.2586 23.4969C19.2503 22.6253 19.242 21.7516 19.2842 20.8814C19.3355 19.8263 19.8851 19.3631 20.9409 19.4275C21.5799 19.4663 22.1296 19.7571 22.5983 20.1538C23.3349 20.7768 24.0404 21.4394 24.7327 22.1123C25.1965 22.563 25.6098 23.0649 26.0543 23.5357C26.2461 23.7385 26.4641 23.8971 26.7715 23.8943C27.6348 23.8867 28.4988 23.8922 29.3621 23.8908C29.4265 23.8908 29.4916 23.8784 29.5809 23.8694C29.5373 23.7517 29.5158 23.6471 29.4632 23.5627C29.2258 23.1833 29.0188 22.7748 28.728 22.4391C27.7505 21.3106 26.7508 20.2008 25.7435 19.0987C24.9605 18.2423 24.8954 17.5493 25.5531 16.5911C25.8071 16.2208 26.0668 15.8545 26.3125 15.4793C27.1966 14.1293 28.0876 12.7835 28.7834 11.322C28.8851 11.1074 28.9606 10.8803 29.0617 10.6248C28.1465 10.6248 27.2838 10.6359 26.4219 10.6193C26.1145 10.6131 25.9615 10.7315 25.8418 11.0098C25.119 12.6948 24.2585 14.3058 23.1722 15.7901C22.6751 16.4693 22.1469 17.118 21.4055 17.5507C20.2507 18.2243 19.3064 17.7348 19.2745 16.4001C19.2316 14.5959 19.2475 12.7904 19.2378 10.9855C19.2371 10.8755 19.2378 10.7654 19.2378 10.6408C17.9488 10.6408 16.6853 10.6408 15.3941 10.6408C15.4218 10.6871 15.4357 10.7162 15.4544 10.7411C16.0456 11.5061 16.2575 12.3895 16.2588 13.3366C16.2602 14.5371 16.2623 15.7375 16.2581 16.938C16.2575 17.2225 16.2491 17.5085 16.2159 17.7909C16.0844 18.9055 15.1145 19.3888 14.1771 18.7761C13.7866 18.5206 13.4308 18.1835 13.1282 17.8255C12.0323 16.5281 11.2618 15.03 10.5805 13.4882C10.2115 12.6533 9.89999 11.7928 9.57322 10.9398C9.48807 10.7176 9.36968 10.6103 9.11561 10.62C8.64968 10.6387 8.18307 10.6255 7.71645 10.6255C7.27891 10.6255 6.83999 10.6255 6.36645 10.6255Z" fill="white"/>
</g>
<defs>
<clipPath id="clip0_97_56">
<rect width="36" height="36" fill="white"/>
</clipPath>
</defs>
</svg>
